<?xml version="1.0" encoding="UTF-8"?>
<svg version="1.1" xmlns="http://www.w3.org/2000/svg" width="1080" height="1350">
<path d="M0 0 C356.4 0 712.8 0 1080 0 C1080 445.5 1080 891 1080 1350 C723.6 1350 367.2 1350 0 1350 C0 904.5 0 459 0 0 Z " fill="#FEFEFE" transform="translate(0,0)"/>
<path d="M0 0 C14.25756671 -0.06812275 28.51502305 -0.12301486 42.77271652 -0.15543652 C49.39508468 -0.17100724 56.01734302 -0.19208632 62.63964844 -0.22631836 C69.0458007 -0.25922099 75.45184004 -0.27691738 81.85807037 -0.28463173 C84.28655013 -0.29012031 86.71502461 -0.30083573 89.14345551 -0.31719017 C109.49925322 -0.44866579 128.34520546 0.26616438 147 9 C147 9.66 147 10.32 147 11 C147.70125 11.2475 148.4025 11.495 149.125 11.75 C159.91612544 16.44179367 167.8994004 25.71233732 172.44921875 36.40625 C178.16070044 51.72414933 179.68200952 70.36941864 174 86 C168.10117998 98.7408118 158.52081712 110.22895155 145.5625 116.0625 C143.59252001 116.92007666 143.59252001 116.92007666 142 118 C140.87184635 120.6147267 140.87184635 120.6147267 141 123 C141.60730957 123.01635498 142.21461914 123.03270996 142.84033203 123.04956055 C149.82197498 123.46052148 154.83968744 125.36670671 160.875 128.8125 C161.7397998 129.29807373 162.60459961 129.78364746 163.49560547 130.28393555 C172.60080841 135.60876981 182.19671493 142.33806746 185 153 C185.66 153 186.32 153 187 153 C196.25533114 171.51066227 197.36883211 191.92549298 193 212 C192.81695313 212.91523437 192.63390625 213.83046875 192.4453125 214.7734375 C189.89041665 225.781569 183.93880146 236.8936249 176 245 C175.34 245 174.68 245 174 245 C173.67 245.99 173.34 246.98 173 248 C170.94505116 249.62828573 168.9205503 251.10675893 166.75 252.5625 C166.17636719 252.96146484 165.60273437 253.36042969 165.01171875 253.77148438 C160.78262195 256.65671101 157.19223759 259 152 259 C152 259.66 152 260.32 152 261 C148.92091152 261.82916107 145.83613871 262.63501551 142.75 263.4375 C141.89664062 263.66759766 141.04328125 263.89769531 140.1640625 264.13476562 C129.59097415 266.85694136 118.9691717 267.15072151 108.09814453 267.12939453 C106.97415253 267.13114685 105.85016052 267.13289917 104.69210815 267.13470459 C101.00566015 267.13907503 97.31926093 267.13619849 93.6328125 267.1328125 C91.0314025 267.13348776 88.42999255 267.13445963 85.82858276 267.13571167 C80.3767648 267.13752516 74.92496042 267.13515357 69.47314453 267.13037109 C63.2568803 267.12497939 57.04064914 267.12665695 50.82438576 267.1321975 C44.7632182 267.13737512 38.70206472 267.1367079 32.64089584 267.13381577 C30.10347361 267.13316018 27.56605051 267.13392553 25.0286293 267.13629532 C6.66405015 267.14966526 -11.65177268 266.71625984 -30 266 C-30.00423194 265.2131548 -30.00846388 264.4263096 -30.01282406 263.61562061 C-30.11635536 244.42541055 -30.22502558 225.2352358 -30.33933926 206.04508686 C-30.39449907 196.76468926 -30.44795167 187.48428782 -30.49731445 178.20385742 C-30.54036864 170.11030202 -30.58669815 162.01677295 -30.63687855 153.92325848 C-30.66330964 149.64213396 -30.68815639 145.36101408 -30.70907402 141.07985878 C-30.72886095 137.04074899 -30.75306551 133.00168852 -30.78049088 128.9626236 C-30.78974604 127.48937832 -30.79746102 126.01612233 -30.80341911 124.54286003 C-30.72464765 106.80465145 -30.72464765 106.80465145 -34.125 89.5 C-34.34091797 88.78932373 -34.55683594 88.07864746 -34.77929688 87.34643555 C-38.74660249 74.95138371 -45.08930306 64.55970266 -55.5625 56.75 C-56.12646484 56.316875 -56.69042969 55.88375 -57.27148438 55.4375 C-60.06567361 53.31979869 -62.78444003 51.41516087 -66 50 C-66 49.34 -66 48.68 -66 48 C-93.4611516 41.22515302 -121.48860458 37.56231972 -147.2734375 51.80859375 C-150.9322545 54.08922365 -154.3511301 56.46385349 -157.67578125 59.2109375 C-160 61 -160 61 -162 61 C-162.23332031 61.55042969 -162.46664062 62.10085938 -162.70703125 62.66796875 C-164.338335 65.61022959 -166.43252044 67.81579215 -168.6875 70.3125 C-183.63050603 87.74825518 -187.11167659 111.17824204 -187.20532227 133.40234375 C-187.21491532 134.85178396 -187.22492621 136.30122145 -187.23532104 137.75065613 C-187.26222163 141.66532934 -187.283311 145.58001442 -187.30332303 149.49472809 C-187.3252748 153.59334953 -187.35261829 157.69193499 -187.37937927 161.79052734 C-187.42918242 169.54279642 -187.47416688 177.29508561 -187.51740164 185.0473938 C-187.56688017 193.87693931 -187.62175875 202.70644871 -187.67708123 211.53595924 C-187.79071112 229.69060592 -187.8975911 247.84528673 -188 266 C-191.63 266 -195.26 266 -199 266 C-199 199.01 -199 132.02 -199 63 C-198.34 63 -197.68 63 -197 63 C-196.75121094 62.11699219 -196.50242188 61.23398437 -196.24609375 60.32421875 C-189.41818419 42.10932522 -167.98720604 28.45267542 -151.1953125 20.42578125 C-147.16950537 18.62942477 -143.25343667 17.14922047 -139 16 C-137.81921875 15.67257812 -136.6384375 15.34515625 -135.421875 15.0078125 C-106.25488105 7.1651 -70.11534461 6.42534428 -42.98828125 21.6953125 C-40.5496011 23.36093478 -38.27557588 25.1194608 -36 27 C-34.45863762 28.16706865 -32.916972 29.33373692 -31.375 30.5 C-18.54308248 40.65197722 -18.54308248 40.65197722 -15 47 C-15 47.66 -15 48.32 -15 49 C-14.34 49 -13.68 49 -13 49 C-10.95830515 51.90548882 -10 53.40142046 -10 57 C-9.34 57 -8.68 57 -8 57 C0.69368116 73.46250263 4.08006461 92.5265861 4 111 C17.61340191 111.06969049 31.22676096 111.12290787 44.84030533 111.15543652 C51.16248147 111.17105323 57.48453502 111.19221843 63.80664062 111.22631836 C69.91449936 111.25905433 76.02224062 111.27688302 82.13018036 111.28463173 C84.45362953 111.29014973 86.7770727 111.3009247 89.1004715 111.31719017 C112.56260643 111.62002321 112.56260643 111.62002321 133 101 C135.8220601 97.92239902 138.13303036 94.73393928 140 91 C140.66 91 141.32 91 142 91 C145.79173414 74.68200131 147.73632121 57.55445134 138.83984375 42.48046875 C135.83197177 38.4252698 132.23441068 35.68900532 128 33 C127.0925 32.4225 126.185 31.845 125.25 31.25 C114.95598988 27.29076534 104.59092838 26.50824558 93.6640625 26.34765625 C92.18744734 26.31604559 90.71085428 26.28338841 89.23428345 26.24977112 C85.30021053 26.16452903 81.36606191 26.09775549 77.43153381 26.03751373 C74.99691291 25.99995237 72.56236342 25.95921661 70.12780762 25.91766357 C59.38497499 25.73640493 48.64184585 25.59506281 37.89825439 25.46777344 C33.5988095 25.41618967 29.29940745 25.36124208 25 25.30664062 C16.66670296 25.20127399 8.33336654 25.09971824 0 25 C0 16.75 0 8.5 0 0 Z " fill="#030303" transform="translate(448,585)"/>
<path d="M0 0 C10.44507947 8.75397136 19.04415649 20.26890449 23.67578125 33.15625 C23.6875 35.375 23.6875 35.375 22.67578125 37.15625 C20.3828125 38.9375 20.3828125 38.9375 17.48828125 40.65625 C16.49570312 41.25566406 15.503125 41.85507812 14.48046875 42.47265625 C13.55492187 43.02824219 12.629375 43.58382812 11.67578125 44.15625 C10.48183035 44.95924051 9.29259072 45.76940682 8.11328125 46.59375 C5.67578125 48.15625 5.67578125 48.15625 3.67578125 48.15625 C3.67578125 48.81625 3.67578125 49.47625 3.67578125 50.15625 C0.89453125 50.5 0.89453125 50.5 -2.32421875 50.15625 C-4.23046875 47.8125 -4.23046875 47.8125 -5.82421875 44.65625 C-13.67509048 30.01961387 -24.86775171 17.79321002 -41.07421875 12.34375 C-41.73574951 12.16328125 -42.39728027 11.9828125 -43.07885742 11.796875 C-45.257415 11.17530981 -47.35219271 10.43052586 -49.48046875 9.65625 C-54.31915608 8.03492273 -59.00520406 7.39696457 -64.07421875 6.96875 C-64.95037842 6.88979492 -65.82653809 6.81083984 -66.72924805 6.72949219 C-93.02667188 4.49388453 -118.49162567 8.62902101 -139.39453125 25.54296875 C-142.80237961 28.58276949 -145.48408157 31.77751762 -148.0546875 35.5390625 C-148.47363281 36.07273437 -148.89257812 36.60640625 -149.32421875 37.15625 C-149.98421875 37.15625 -150.64421875 37.15625 -151.32421875 37.15625 C-151.57171875 37.8575 -151.81921875 38.55875 -152.07421875 39.28125 C-153.48546193 42.52710932 -155.36336453 45.21496867 -157.32421875 48.15625 C-158.00300805 49.81801632 -158.66800249 51.48544108 -159.32421875 53.15625 C-160.29762308 55.20067025 -161.27723528 57.24214175 -162.26171875 59.28125 C-164.97967968 65.17236435 -166.94410808 70.82592201 -168.32421875 77.15625 C-168.59105469 78.37054687 -168.85789062 79.58484375 -169.1328125 80.8359375 C-172.74259884 98.12142506 -172.5895796 115.57375243 -172.32421875 133.15625 C-172.31696777 133.89875 -172.3097168 134.64125 -172.30224609 135.40625 C-171.97073828 158.42075836 -166.21077709 185.0492 -151.32421875 203.15625 C-150.70933594 203.97996094 -150.09445312 204.80367187 -149.4609375 205.65234375 C-136.37238179 222.88517161 -118.87886201 232.346106 -97.64038086 235.74609375 C-91.99353774 236.44451799 -86.38305925 236.49394852 -80.69921875 236.46875 C-79.48459961 236.46746094 -78.26998047 236.46617187 -77.01855469 236.46484375 C-67.1257899 236.36001975 -58.00359451 235.15887947 -48.32421875 233.15625 C-48.32421875 243.71625 -48.32421875 254.27625 -48.32421875 265.15625 C-63.3374015 267.46597042 -63.3374015 267.46597042 -70.125 267.45703125 C-70.88991257 267.46131638 -71.65482513 267.4656015 -72.44291687 267.47001648 C-74.03997827 267.47568404 -75.63706545 267.47631718 -77.23413086 267.47192383 C-79.62335085 267.46876766 -82.01132278 267.49230607 -84.40039062 267.51757812 C-107.90248457 267.61383243 -132.87234496 261.84843776 -152.32421875 248.15625 C-152.32421875 247.49625 -152.32421875 246.83625 -152.32421875 246.15625 C-153.05898438 245.89070313 -153.79375 245.62515625 -154.55078125 245.3515625 C-161.49853933 242.35717662 -166.88825953 236.91011272 -171.65625 231.16015625 C-172.71838962 229.88409624 -173.81736125 228.63721457 -174.9609375 227.43359375 C-180.72367733 221.32159696 -184.9159772 214.20629978 -189.20214844 207.02636719 C-190.13185528 205.47685579 -191.0879742 203.94322664 -192.05078125 202.4140625 C-201.92371757 185.88877337 -206.24340003 165.04368148 -208.32421875 146.15625 C-208.43765625 145.16625 -208.55109375 144.17625 -208.66796875 143.15625 C-212.65374615 101.52701941 -205.99946653 59.15722442 -182.32421875 24.15625 C-181.66421875 23.16625 -181.00421875 22.17625 -180.32421875 21.15625 C-179.66421875 21.15625 -179.00421875 21.15625 -178.32421875 21.15625 C-178.09347656 20.43824219 -177.86273437 19.72023438 -177.625 18.98046875 C-169.75227357 1.88743208 -144.92836342 -10.55780423 -128.41650391 -17.07714844 C-123.16926161 -18.99970862 -117.78700923 -20.28326074 -112.32324219 -21.421875 C-110.37149791 -21.83377218 -108.42957427 -22.29136458 -106.48828125 -22.75 C-70.17625441 -30.77368462 -29.19408754 -23.15900726 0 0 Z " fill="#030303" transform="translate(858.32421875,586.84375)"/>
<path d="M0 0 C0.73733368 -0.00961258 1.47466736 -0.01922516 2.23434448 -0.02912903 C4.61200603 -0.05377634 6.98941318 -0.0663798 9.3671875 -0.07421875 C10.17365723 -0.07750183 10.98012695 -0.08078491 11.81103516 -0.08416748 C40.56363479 -0.12212045 40.56363479 -0.12212045 52.2421875 6.23828125 C54.56533781 6.93960965 56.90007829 7.60313299 59.2421875 8.23828125 C60.55526434 8.61125638 61.86779047 8.98617725 63.1796875 9.36328125 C64.1903125 9.65203125 65.2009375 9.94078125 66.2421875 10.23828125 C66.2421875 10.89828125 66.2421875 11.55828125 66.2421875 12.23828125 C67.12390625 12.50511719 68.005625 12.77195312 68.9140625 13.046875 C77.47961952 16.11318356 84.40430223 21.95946953 90.953125 28.125 C93.2057629 30.27464529 93.2057629 30.27464529 95.70703125 32.09765625 C98.78594192 34.69741441 101.03521657 37.58038086 103.4296875 40.80078125 C103.86732422 41.37763672 104.30496094 41.95449219 104.75585938 42.54882812 C110.2421875 49.81088383 110.2421875 49.81088383 110.2421875 53.23828125 C110.9021875 53.23828125 111.5621875 53.23828125 112.2421875 53.23828125 C112.2421875 119.89828125 112.2421875 186.55828125 112.2421875 255.23828125 C108.2821875 255.23828125 104.3221875 255.23828125 100.2421875 255.23828125 C100.23632126 253.43662506 100.23045502 251.63496887 100.22441101 249.77871704 C100.16702788 232.74294026 100.09435846 215.70728799 100.00647259 198.6716404 C99.96168248 189.91489498 99.9222301 181.15818871 99.89575195 172.40136719 C99.87263488 164.76074244 99.83908672 157.12024336 99.79348594 149.47971857 C99.76973667 145.44153502 99.75088907 141.40347449 99.74457359 137.36522293 C100.01076026 108.93550195 100.01076026 108.93550195 93.5546875 81.42578125 C93.17666992 80.39251709 93.17666992 80.39251709 92.79101562 79.33837891 C90.13425748 72.41640362 86.5163869 66.30208446 82.2421875 60.23828125 C81.77296875 59.56539062 81.30375 58.8925 80.8203125 58.19921875 C71.02669778 45.58273861 52.14445905 35.57622745 36.5234375 32.5078125 C14.3813602 29.83154902 -9.28544445 29.27996935 -28.05078125 43.1015625 C-29.7578125 44.23828125 -29.7578125 44.23828125 -31.7578125 44.23828125 C-31.7578125 44.89828125 -31.7578125 45.55828125 -31.7578125 46.23828125 C-33.3671875 47.7890625 -33.3671875 47.7890625 -35.5078125 49.55078125 C-41.70920736 54.83345095 -45.91273247 60.57845039 -48.7578125 68.23828125 C-49.4178125 68.23828125 -50.0778125 68.23828125 -50.7578125 68.23828125 C-50.8815625 68.87121094 -51.0053125 69.50414062 -51.1328125 70.15625 C-51.63696716 72.64236268 -52.16011441 75.12205718 -52.6953125 77.6015625 C-52.86804688 78.40658203 -53.04078125 79.21160156 -53.21875 80.04101562 C-53.57571935 81.70299248 -53.93506248 83.3644614 -54.296875 85.02539062 C-54.46960938 85.83427734 -54.64234375 86.64316406 -54.8203125 87.4765625 C-55.05427734 88.55997925 -55.05427734 88.55997925 -55.29296875 89.6652832 C-56.84323472 98.24629848 -56.92839624 106.67232211 -56.96313477 115.375 C-56.97272665 116.9032568 -56.98273747 118.43151103 -56.99313354 119.95976257 C-57.02004685 124.08930583 -57.04112944 128.21886036 -57.06113553 132.34844208 C-57.08307934 136.67128018 -57.11042676 140.99408408 -57.13719177 145.31689453 C-57.18700558 153.4941562 -57.23198614 161.67143696 -57.27521414 169.84873581 C-57.32468349 179.16194689 -57.37956551 188.47512364 -57.43489373 197.78830147 C-57.54854002 216.93826421 -57.65470209 236.08825868 -57.7578125 255.23828125 C-68.9778125 255.23828125 -80.1978125 255.23828125 -91.7578125 255.23828125 C-91.80307392 234.26205077 -91.83986814 213.28586023 -91.86143684 192.3095932 C-91.87172067 182.56851953 -91.88572525 172.82747849 -91.90869141 163.08642578 C-91.92871434 154.5896399 -91.94154993 146.09287768 -91.94598949 137.59606886 C-91.94858189 133.10298194 -91.95461383 128.60996268 -91.96927261 124.11689758 C-91.98299771 119.87505338 -91.98700548 115.63330374 -91.98402786 111.39143944 C-91.98457143 109.84687471 -91.98845897 108.30230631 -91.99622345 106.757761 C-92.06264783 92.84434347 -91.17648423 79.15714319 -86.9453125 65.80078125 C-86.71005859 64.99447266 -86.47480469 64.18816406 -86.23242188 63.35742188 C-84.6682316 58.25430242 -82.5876411 53.79824507 -79.86767578 49.20654297 C-78.59093078 47.05592473 -78.59093078 47.05592473 -77.4453125 43.80078125 C-68.65255998 25.23830371 -49.47888637 12.25968358 -30.7578125 5.23828125 C-25.1780767 3.50526996 -19.49659013 2.30863282 -13.7578125 1.23828125 C-12.85135986 1.06393555 -11.94490723 0.88958984 -11.01098633 0.70996094 C-7.33092997 0.17638729 -3.71049424 0.04046214 0 0 Z " fill="#040404" transform="translate(135.7578125,595.76171875)"/>
<path d="M0 0 C27.18040313 -0.08021762 27.18040313 -0.08021762 38.82226562 -0.09765625 C46.74652479 -0.10958271 54.67074567 -0.12364789 62.5949707 -0.15087891 C68.98811666 -0.17270943 75.38121271 -0.18459009 81.77439308 -0.18975449 C84.20585731 -0.19343197 86.63731901 -0.20061289 89.06876183 -0.21146011 C110.1844912 -0.30186222 130.81407505 -0.37674563 147.19140625 15.06640625 C158.4321444 26.96958201 159.55760861 41.52875683 159.1875 57.30078125 C158.76506324 65.63510641 156.83337685 72.6013146 153 80 C152.65195312 80.6909375 152.30390625 81.381875 151.9453125 82.09375 C146.57445553 91.72425216 136.70246513 97.24437691 126.58027649 100.86567688 C114.44759823 104.21224793 101.8281853 103.37273688 89.35546875 103.29296875 C86.77330269 103.28736551 84.19113342 103.28309886 81.60896301 103.28010559 C75.53901202 103.26987455 69.46925125 103.24630157 63.39937145 103.21605712 C55.79948263 103.17902386 48.19956611 103.16276697 40.59960938 103.14648438 C27.06627812 103.1173994 13.53330641 103.05728159 0 103 C0 69.01 0 35.02 0 0 Z " fill="#FDFDFD" transform="translate(452,723)"/>
<path d="M0 0 C-0.33 0.66 -0.66 1.32 -1 2 C-5.95 1.67 -10.9 1.34 -16 1 C-10.66324835 -4.33675165 -6.19547978 -3.31900702 0 0 Z " fill="#1D1D1D" transform="translate(768,852)"/>
<path d="M0 0 C0.66 0.33 1.32 0.66 2 1 C1.01 2.175625 1.01 2.175625 0 3.375 C-2.20201441 5.71512812 -2.20201441 5.71512812 -2 8 C-3.32 8.33 -4.64 8.66 -6 9 C-4.83857315 4.64464931 -3.92300495 2.35380297 0 0 Z " fill="#252525" transform="translate(280,615)"/>
<path d="M0 0 C2.475 0.99 2.475 0.99 5 2 C4.34 2.66 3.68 3.32 3 4 C0.27130593 3.96712417 -2.2966618 3.43602229 -5 3 C-4.360625 2.690625 -3.72125 2.38125 -3.0625 2.0625 C-1.06389179 1.1654837 -1.06389179 1.1654837 0 0 Z " fill="#333333" transform="translate(815,594)"/>
<path d="M0 0 C0.33 0 0.66 0 1 0 C1.33 2.31 1.66 4.62 2 7 C0.68 7.99 -0.64 8.98 -2 10 C-1.54177532 6.53058454 -1.10868317 3.32604951 0 0 Z " fill="#393939" transform="translate(50,658)"/>
<path d="M0 0 C-0.66 1.65 -1.32 3.3 -2 5 C-2.99 5 -3.98 5 -5 5 C-4.625 3.0625 -4.625 3.0625 -4 1 C-2 0 -2 0 0 0 Z M-7 5 C-6.01 5.495 -6.01 5.495 -5 6 C-5.99 6.495 -5.99 6.495 -7 7 C-7 6.34 -7 5.68 -7 5 Z " fill="#161616" transform="translate(704,629)"/>
</svg>
